<svg xmlns="http://www.w3.org/2000/svg" height="48" viewBox="0 96 960 960" width="48"><path d="M218.87 795.326q63.043-40.283 125.991-60.424 62.947-20.141 135.184-20.141 72.238 0 135.498 20.38 63.261 20.381 127.587 60.185 42.522-55.522 59.642-107.914Q819.891 635.021 819.891 576q0-144.624-97.621-242.258-97.621-97.633-242.228-97.633-144.607 0-242.27 97.633Q140.109 431.376 140.109 576q0 59.239 17.506 111.454 17.507 52.215 61.255 107.872Zm260.984-179.239q-61.935 0-104.318-42.548-42.384-42.548-42.384-104.326 0-61.778 42.529-104.3t104.465-42.522q61.935 0 104.318 42.668 42.384 42.667 42.384 104.445 0 61.779-42.529 104.181-42.529 42.402-104.465 42.402Zm-.42 377.109q-85.224 0-161.663-32.922-76.438-32.922-133.225-90.252-56.788-57.33-89.265-132.751-32.477-75.421-32.477-161.745 0-86.084 33.21-161.79 33.211-75.705 90.205-132.555 56.993-56.85 132.466-89.733 75.473-32.883 161.815-32.883 86.103 0 161.666 33.36 75.564 33.359 132.089 89.938 56.524 56.58 89.852 132.295 33.328 75.716 33.328 161.576 0 86.257-32.883 161.656-32.883 75.398-89.802 132.391-56.918 56.994-132.902 90.204-75.984 33.211-162.414 33.211Z"/></svg>